<?xml version="1.0" encoding="UTF-8"?>
<svg width="56px" height="76px" viewBox="0 0 56 76" version="1.1" xmlns="http://www.w3.org/2000/svg" xmlns:xlink="http://www.w3.org/1999/xlink">
    <!-- Generator: Sketch 54 (76480) - https://sketchapp.com -->
    <title>lock</title>
    <desc>Created with Sketch.</desc>
    <g id="Page-1" stroke="none" stroke-width="1" fill="none" fill-rule="evenodd">
        <g id="Mobile-Copy-2" transform="translate(-133.000000, -136.000000)" fill="#FFFFFF" fill-rule="nonzero">
            <g id="lock" transform="translate(133.000000, 136.000000)">
                <path d="M37.301,33.348 L18.699,33.348 L18.699,19.399 C18.699,14.2701 22.8709,10.0982 27.9998,10.0982 C33.1287,10.0982 37.3006,14.2701 37.3006,19.399 L37.301,33.348 Z M28.0002,61.25 C25.4299,61.25 23.3479,59.1719 23.3479,56.6016 C23.3479,54.0352 25.4299,51.9493 28.0002,51.9493 C30.5666,51.9493 32.6525,54.0313 32.6525,56.6016 C32.6525,59.168 30.5666,61.25 28.0002,61.25 L28.0002,61.25 Z M51.2542,33.348 L46.6058,33.348 L46.6058,19.399 C46.6058,9.126 38.2738,0.794 28.0038,0.794 C17.7268,0.794 9.4018,9.126 9.4018,19.399 L9.4018,33.348 L4.7495,33.348 C2.1909,33.348 0.0972,35.4418 0.0972,38.0003 L0.0972,70.5553 C0.0972,73.1139 2.191,75.2076 4.7495,75.2076 L51.2535,75.2076 C53.8082,75.2076 55.9058,73.1138 55.9058,70.5553 L55.9058,38.0003 C55.9058,35.4417 53.8081,33.348 51.2535,33.348 L51.2542,33.348 Z" id="Shape"></path>
            </g>
        </g>
    </g>
</svg>